<?xml version="1.0" encoding="UTF-8"?>
<svg xmlns="http://www.w3.org/2000/svg" viewBox="100 -15 140 400" width="70" height="200">
  <g transform="translate(-525,-596.53988)">
    <!-- North arrow (red, points up) -->
    <path
      fill="#fc3e03"
      d="m 694.23312,596.53988 c 8.18283,41.46589 15.07363,82.93179 22.82578,124.39769 l 9.47484,51.07385 c -3.87607,1.01136 -8.18281,0.50568 -12.48956,0.50568 -1.29203,0 -3.87608,1.01136 -3.87608,-1.51705 a 16.365645,19.215903 0 0 0 -31.86994,0.50568 c -4.73742,2.52841 -10.3362,0.50569 -15.5043,1.01137 l -0.86134,-0.50568 9.47484,-51.07385 c 7.75215,-41.4659 14.64294,-82.9318 22.82576,-124.39769 z"
    />
    <!-- South arrow (blue, points down) -->
    <path
      fill="#2491ed"
      d="m 661.93252,773.02278 c 5.16809,0.50568 10.76686,-1.01136 15.93497,0.50568 a 15.504295,18.20454 0 0 0 22.39509,16.6875 c 6.02944,-1.51705 10.33619,-9.60796 10.33619,-16.6875 5.1681,-1.51704 10.3362,0 15.50429,-0.50568 -2.58404,17.19318 -6.46011,33.88067 -9.04416,51.07385 L 694.23312,949 671.40736,824.09663 Z"
    />
  </g>
</svg>